<svg preserveAspectRatio="none" width="100%" height="100%" overflow="visible" style="display: block;" viewBox="0 0 32 32" fill="none" xmlns="http://www.w3.org/2000/svg">
<g id="shape">
<path fill-rule="evenodd" clip-rule="evenodd" d="M16 32C18.1948 32 20.2579 31.5802 22.1893 30.7407C24.1207 29.9012 25.8217 28.7462 27.2922 27.2757C28.7627 25.8052 29.915 24.107 30.749 22.1811C31.583 20.2551 32 18.1948 32 16C32 13.8052 31.583 11.7449 30.749 9.81893C29.915 7.893 28.7599 6.19204 27.284 4.71605C25.808 3.24006 24.1043 2.08505 22.1728 1.25103C20.2414 0.41701 18.1783 0 15.9835 0C13.8107 0 11.7586 0.41701 9.82716 1.25103C7.89575 2.08505 6.19204 3.24006 4.71605 4.71605C3.24006 6.19204 2.08505 7.893 1.25103 9.81893C0.41701 11.7449 0 13.8052 0 16C0 18.1948 0.419753 20.2551 1.25926 22.1811C2.09877 24.107 3.25377 25.8052 4.72428 27.2757C6.19479 28.7462 7.89575 29.9012 9.82716 30.7407C11.7586 31.5802 13.8162 32 16 32Z" fill="#00AB61"/>
<path fill-rule="evenodd" clip-rule="evenodd" d="M14.2552 23.6543C13.9699 23.6543 13.7093 23.5912 13.4733 23.465C13.2374 23.3388 13.0152 23.1386 12.8067 22.8642L8.95482 18.1564C8.81216 17.9918 8.7079 17.8189 8.64206 17.6379C8.57622 17.4568 8.54329 17.273 8.54329 17.0864C8.54329 16.7133 8.67498 16.3923 8.93836 16.1235C9.20173 15.8546 9.51997 15.7202 9.89309 15.7202C10.1235 15.7202 10.3375 15.7668 10.5351 15.8601C10.7326 15.9534 10.9246 16.1262 11.1112 16.3786L14.1894 20.3128L20.7244 9.84363C21.0426 9.33883 21.4432 9.08643 21.926 9.08643C22.2881 9.08643 22.6146 9.20165 22.9054 9.43211C23.1962 9.66256 23.3416 9.96983 23.3416 10.3539C23.3416 10.5405 23.3005 10.7243 23.2182 10.9054C23.1359 11.0864 23.0399 11.2593 22.9301 11.4239L15.6379 22.8642C15.4624 23.1276 15.2593 23.3251 15.0289 23.4568C14.7984 23.5885 14.5406 23.6543 14.2552 23.6543Z" fill="var(--fill-0, white)"/>
</g>
</svg>
