<svg preserveAspectRatio="none" width="100%" height="100%" overflow="visible" style="display: block;" viewBox="0 0 32 32" fill="none" xmlns="http://www.w3.org/2000/svg">
<g id="shape">
<path fill-rule="evenodd" clip-rule="evenodd" d="M16 32C18.1948 32 20.2579 31.5802 22.1893 30.7407C24.1207 29.9012 25.8217 28.7462 27.2922 27.2757C28.7627 25.8052 29.915 24.107 30.749 22.1811C31.583 20.2551 32 18.1948 32 16C32 13.8052 31.583 11.7449 30.749 9.81893C29.915 7.893 28.7599 6.19204 27.284 4.71605C25.808 3.24006 24.1043 2.08505 22.1728 1.25103C20.2414 0.41701 18.1783 0 15.9835 0C13.8107 0 11.7586 0.41701 9.82716 1.25103C7.89575 2.08505 6.19204 3.24006 4.71605 4.71605C3.24006 6.19204 2.08505 7.893 1.25103 9.81893C0.41701 11.7449 0 13.8052 0 16C0 18.1948 0.419753 20.2551 1.25926 22.1811C2.09877 24.107 3.25377 25.8052 4.72428 27.2757C6.19479 28.7462 7.89575 29.9012 9.82716 30.7407C11.7586 31.5802 13.8162 32 16 32Z" fill="#FF4343"/>
<path fill-rule="evenodd" clip-rule="evenodd" d="M23.6205 23.6242C24.1199 23.1149 24.1199 22.2825 23.6303 21.7928L17.8424 16.0049L23.6303 10.2072C24.1199 9.71753 24.1297 8.87529 23.6205 8.37583C23.121 7.87637 22.2788 7.87637 21.7891 8.36604L16.0012 14.1539L10.2035 8.36604C9.73343 7.88616 8.87161 7.86657 8.37215 8.37583C7.87269 8.87529 7.88248 9.73711 8.36236 10.2072L14.1503 16.0049L8.36236 21.7928C7.88248 22.2727 7.87269 23.1247 8.37215 23.6242C8.88141 24.1236 9.73343 24.1138 10.2035 23.6437L16.0012 17.8461L21.7891 23.634C22.2788 24.1236 23.121 24.1236 23.6205 23.6242Z" fill="var(--fill-0, white)"/>
</g>
</svg>
